<?xml version="1.0"?>
<svg xmlns="http://www.w3.org/2000/svg" viewBox="0 0 32 32">
    <path style="text-indent:0;text-align:start;line-height:normal;text-transform:none;block-progression:tb;-inkscape-font-specification:Sans" d="M 4 4 L 4 27 L 4 28 L 5 28 L 28 28 L 28 26 L 26.34375 26 C 25.821524 23.201431 24.973349 19.385732 23.65625 16.03125 C 22.936174 14.197309 22.092359 12.539701 21.03125 11.25 C 19.970141 9.9602994 18.615247 9 17 9 C 15.384719 9 14.029851 9.9602225 12.96875 11.25 C 11.907649 12.539778 11.063823 14.197252 10.34375 16.03125 C 9.0266566 19.385836 8.1784748 23.201774 7.65625 26 L 6 26 L 6 4 L 4 4 z M 17 9 L 18 9 L 18 7 L 16 7 L 16 9 L 17 9 z M 8 7 L 8 9 L 10 9 L 10 7 L 8 7 z M 12 7 L 12 9 L 14 9 L 14 7 L 12 7 z M 20 7 L 20 9 L 22 9 L 22 7 L 20 7 z M 24 7 L 24 9 L 26 9 L 26 7 L 24 7 z M 17 11 C 17.840253 11 18.656172 11.474388 19.5 12.5 C 20.343828 13.525612 21.137826 15.062941 21.8125 16.78125 C 22.988779 19.777083 23.797386 23.303229 24.3125 26 L 9.6875 26 C 10.202614 23.303475 11.011215 19.777201 12.1875 16.78125 C 12.862177 15.062873 13.656163 13.525691 14.5 12.5 C 15.343837 11.474309 16.159781 11 17 11 z" overflow="visible" font-family="Sans"/>
</svg>
