<?xml version="1.0"?>
<svg xmlns="http://www.w3.org/2000/svg" viewBox="0 0 32 32">
    <path style="text-indent:0;text-align:start;line-height:normal;text-transform:none;block-progression:tb;-inkscape-font-specification:Sans" d="M 4 4 L 4 27 L 4 28 L 5 28 L 28 28 L 28 26 L 6 26 L 6 4 L 4 4 z M 10 4.875 L 8 5.125 C 8 5.125 8.5048382 9.1712502 9.78125 13.28125 C 10.419456 15.33625 11.243666 17.421547 12.375 19.0625 C 13.506334 20.703453 15.044601 22 17 22 C 18.955399 22 20.493666 20.703453 21.625 19.0625 C 22.756334 17.421547 23.580544 15.33625 24.21875 13.28125 C 25.495162 9.1712502 26 5.125 26 5.125 L 24 4.875 C 24 4.875 23.520588 8.8287498 22.3125 12.71875 C 21.708456 14.66375 20.905728 16.578453 19.96875 17.9375 C 19.031772 19.296547 18.075601 20 17 20 C 15.924399 20 14.968228 19.296547 14.03125 17.9375 C 13.094272 16.578453 12.291544 14.66375 11.6875 12.71875 C 10.479412 8.8287498 10 4.875 10 4.875 z M 17 22 L 16 22 L 16 24 L 18 24 L 18 22 L 17 22 z M 8 22 L 8 24 L 10 24 L 10 22 L 8 22 z M 12 22 L 12 24 L 14 24 L 14 22 L 12 22 z M 20 22 L 20 24 L 22 24 L 22 22 L 20 22 z M 24 22 L 24 24 L 26 24 L 26 22 L 24 22 z" overflow="visible" font-family="Sans"/>
</svg>
