<svg xmlns="http://www.w3.org/2000/svg" xmlns:xlink="http://www.w3.org/1999/xlink" version="1.1" class="marks" width="359" height="347" viewBox="0 0 359 347"><rect width="359" height="347" fill="white"/><g fill="none" stroke-miterlimit="10" transform="translate(53,10)"><g class="mark-group role-frame root" role="graphics-object" aria-roledescription="group mark container"><g transform="translate(0,0)"><path class="background" aria-hidden="true" d="M0.5,0.5h300v300h-300Z" stroke="#ddd"/><g><g class="mark-group role-axis" aria-hidden="true"><g transform="translate(0.5,300.5)"><path class="background" aria-hidden="true" d="M0,0h0v0h0Z" pointer-events="none"/><g><g class="mark-rule role-axis-grid" pointer-events="none"><line transform="translate(0,-300)" x2="0" y2="300" stroke="#ddd" stroke-width="1" opacity="1"/><line transform="translate(30,-300)" x2="0" y2="300" stroke="#ddd" stroke-width="1" opacity="1"/><line transform="translate(60,-300)" x2="0" y2="300" stroke="#ddd" stroke-width="1" opacity="1"/><line transform="translate(90,-300)" x2="0" y2="300" stroke="#ddd" stroke-width="1" opacity="1"/><line transform="translate(120,-300)" x2="0" y2="300" stroke="#ddd" stroke-width="1" opacity="1"/><line transform="translate(150,-300)" x2="0" y2="300" stroke="#ddd" stroke-width="1" opacity="1"/><line transform="translate(180,-300)" x2="0" y2="300" stroke="#ddd" stroke-width="1" opacity="1"/><line transform="translate(210,-300)" x2="0" y2="300" stroke="#ddd" stroke-width="1" opacity="1"/><line transform="translate(240,-300)" x2="0" y2="300" stroke="#ddd" stroke-width="1" opacity="1"/><line transform="translate(270,-300)" x2="0" y2="300" stroke="#ddd" stroke-width="1" opacity="1"/><line transform="translate(300,-300)" x2="0" y2="300" stroke="#ddd" stroke-width="1" opacity="1"/></g></g><path class="foreground" aria-hidden="true" d="" pointer-events="none" display="none"/></g></g><g class="mark-group role-axis" aria-hidden="true"><g transform="translate(0.5,0.5)"><path class="background" aria-hidden="true" d="M0,0h0v0h0Z" pointer-events="none"/><g><g class="mark-rule role-axis-grid" pointer-events="none"><line transform="translate(0,300)" x2="300" y2="0" stroke="#ddd" stroke-width="1" opacity="1"/><line transform="translate(0,273)" x2="300" y2="0" stroke="#ddd" stroke-width="1" opacity="1"/><line transform="translate(0,245)" x2="300" y2="0" stroke="#ddd" stroke-width="1" opacity="1"/><line transform="translate(0,218)" x2="300" y2="0" stroke="#ddd" stroke-width="1" opacity="1"/><line transform="translate(0,191)" x2="300" y2="0" stroke="#ddd" stroke-width="1" opacity="1"/><line transform="translate(0,164)" x2="300" y2="0" stroke="#ddd" stroke-width="1" opacity="1"/><line transform="translate(0,136)" x2="300" y2="0" stroke="#ddd" stroke-width="1" opacity="1"/><line transform="translate(0,109)" x2="300" y2="0" stroke="#ddd" stroke-width="1" opacity="1"/><line transform="translate(0,82)" x2="300" y2="0" stroke="#ddd" stroke-width="1" opacity="1"/><line transform="translate(0,55)" x2="300" y2="0" stroke="#ddd" stroke-width="1" opacity="1"/><line transform="translate(0,27)" x2="300" y2="0" stroke="#ddd" stroke-width="1" opacity="1"/><line transform="translate(0,0)" x2="300" y2="0" stroke="#ddd" stroke-width="1" opacity="1"/></g></g><path class="foreground" aria-hidden="true" d="" pointer-events="none" display="none"/></g></g><g class="mark-group role-axis" role="graphics-symbol" aria-roledescription="axis" aria-label="X-axis titled 'Node Degree' for a linear scale with values from −20 to 180"><g transform="translate(0.5,300.5)"><path class="background" aria-hidden="true" d="M0,0h0v0h0Z" pointer-events="none"/><g><g class="mark-rule role-axis-tick" pointer-events="none"><line transform="translate(0,0)" x2="0" y2="5" stroke="#888" stroke-width="1" opacity="1"/><line transform="translate(30,0)" x2="0" y2="5" stroke="#888" stroke-width="1" opacity="1"/><line transform="translate(60,0)" x2="0" y2="5" stroke="#888" stroke-width="1" opacity="1"/><line transform="translate(90,0)" x2="0" y2="5" stroke="#888" stroke-width="1" opacity="1"/><line transform="translate(120,0)" x2="0" y2="5" stroke="#888" stroke-width="1" opacity="1"/><line transform="translate(150,0)" x2="0" y2="5" stroke="#888" stroke-width="1" opacity="1"/><line transform="translate(180,0)" x2="0" y2="5" stroke="#888" stroke-width="1" opacity="1"/><line transform="translate(210,0)" x2="0" y2="5" stroke="#888" stroke-width="1" opacity="1"/><line transform="translate(240,0)" x2="0" y2="5" stroke="#888" stroke-width="1" opacity="1"/><line transform="translate(270,0)" x2="0" y2="5" stroke="#888" stroke-width="1" opacity="1"/><line transform="translate(300,0)" x2="0" y2="5" stroke="#888" stroke-width="1" opacity="1"/></g><g class="mark-text role-axis-label" pointer-events="none"><text text-anchor="start" transform="translate(0,15)" font-family="sans-serif" font-size="10px" fill="#000" opacity="1">−20</text><text text-anchor="middle" transform="translate(30,15)" font-family="sans-serif" font-size="10px" fill="#000" opacity="1">0</text><text text-anchor="middle" transform="translate(60,15)" font-family="sans-serif" font-size="10px" fill="#000" opacity="1">20</text><text text-anchor="middle" transform="translate(90,15)" font-family="sans-serif" font-size="10px" fill="#000" opacity="1">40</text><text text-anchor="middle" transform="translate(120,15)" font-family="sans-serif" font-size="10px" fill="#000" opacity="1">60</text><text text-anchor="middle" transform="translate(150,15)" font-family="sans-serif" font-size="10px" fill="#000" opacity="1">80</text><text text-anchor="middle" transform="translate(180,15)" font-family="sans-serif" font-size="10px" fill="#000" opacity="1">100</text><text text-anchor="middle" transform="translate(210,15)" font-family="sans-serif" font-size="10px" fill="#000" opacity="1">120</text><text text-anchor="middle" transform="translate(240,15)" font-family="sans-serif" font-size="10px" fill="#000" opacity="1">140</text><text text-anchor="middle" transform="translate(270,15)" font-family="sans-serif" font-size="10px" fill="#000" opacity="1">160</text><text text-anchor="end" transform="translate(300,15)" font-family="sans-serif" font-size="10px" fill="#000" opacity="1">180</text></g><g class="mark-rule role-axis-domain" pointer-events="none"><line transform="translate(0,0)" x2="300" y2="0" stroke="#888" stroke-width="1" opacity="1"/></g><g class="mark-text role-axis-title" pointer-events="none"><text text-anchor="middle" transform="translate(150,30)" font-family="sans-serif" font-size="11px" font-weight="bold" fill="#000" opacity="1">Node Degree</text></g></g><path class="foreground" aria-hidden="true" d="" pointer-events="none" display="none"/></g></g><g class="mark-group role-axis" role="graphics-symbol" aria-roledescription="axis" aria-label="Y-axis titled 'Count of Records' for a linear scale with values from 0 to 2,200"><g transform="translate(0.5,0.5)"><path class="background" aria-hidden="true" d="M0,0h0v0h0Z" pointer-events="none"/><g><g class="mark-rule role-axis-tick" pointer-events="none"><line transform="translate(0,300)" x2="-5" y2="0" stroke="#888" stroke-width="1" opacity="1"/><line transform="translate(0,273)" x2="-5" y2="0" stroke="#888" stroke-width="1" opacity="1"/><line transform="translate(0,245)" x2="-5" y2="0" stroke="#888" stroke-width="1" opacity="1"/><line transform="translate(0,218)" x2="-5" y2="0" stroke="#888" stroke-width="1" opacity="1"/><line transform="translate(0,191)" x2="-5" y2="0" stroke="#888" stroke-width="1" opacity="1"/><line transform="translate(0,164)" x2="-5" y2="0" stroke="#888" stroke-width="1" opacity="1"/><line transform="translate(0,136)" x2="-5" y2="0" stroke="#888" stroke-width="1" opacity="1"/><line transform="translate(0,109)" x2="-5" y2="0" stroke="#888" stroke-width="1" opacity="1"/><line transform="translate(0,82)" x2="-5" y2="0" stroke="#888" stroke-width="1" opacity="1"/><line transform="translate(0,55)" x2="-5" y2="0" stroke="#888" stroke-width="1" opacity="1"/><line transform="translate(0,27)" x2="-5" y2="0" stroke="#888" stroke-width="1" opacity="1"/><line transform="translate(0,0)" x2="-5" y2="0" stroke="#888" stroke-width="1" opacity="1"/></g><g class="mark-text role-axis-label" pointer-events="none"><text text-anchor="end" transform="translate(-7,303)" font-family="sans-serif" font-size="10px" fill="#000" opacity="1">0</text><text text-anchor="end" transform="translate(-7,275.7272727272727)" font-family="sans-serif" font-size="10px" fill="#000" opacity="1">200</text><text text-anchor="end" transform="translate(-7,248.45454545454544)" font-family="sans-serif" font-size="10px" fill="#000" opacity="1">400</text><text text-anchor="end" transform="translate(-7,221.1818181818182)" font-family="sans-serif" font-size="10px" fill="#000" opacity="1">600</text><text text-anchor="end" transform="translate(-7,193.9090909090909)" font-family="sans-serif" font-size="10px" fill="#000" opacity="1">800</text><text text-anchor="end" transform="translate(-7,166.63636363636363)" font-family="sans-serif" font-size="10px" fill="#000" opacity="1">1,000</text><text text-anchor="end" transform="translate(-7,139.36363636363637)" font-family="sans-serif" font-size="10px" fill="#000" opacity="1">1,200</text><text text-anchor="end" transform="translate(-7,112.0909090909091)" font-family="sans-serif" font-size="10px" fill="#000" opacity="1">1,400</text><text text-anchor="end" transform="translate(-7,84.81818181818181)" font-family="sans-serif" font-size="10px" fill="#000" opacity="1">1,600</text><text text-anchor="end" transform="translate(-7,57.54545454545453)" font-family="sans-serif" font-size="10px" fill="#000" opacity="1">1,800</text><text text-anchor="end" transform="translate(-7,30.27272727272728)" font-family="sans-serif" font-size="10px" fill="#000" opacity="1">2,000</text><text text-anchor="end" transform="translate(-7,3)" font-family="sans-serif" font-size="10px" fill="#000" opacity="1">2,200</text></g><g class="mark-rule role-axis-domain" pointer-events="none"><line transform="translate(0,300)" x2="0" y2="-300" stroke="#888" stroke-width="1" opacity="1"/></g><g class="mark-text role-axis-title" pointer-events="none"><text text-anchor="middle" transform="translate(-36.0244140625,150) rotate(-90) translate(0,-2)" font-family="sans-serif" font-size="11px" font-weight="bold" fill="#000" opacity="1">Count of Records</text></g></g><path class="foreground" aria-hidden="true" d="" pointer-events="none" display="none"/></g></g><g class="mark-rect role-mark marks" role="graphics-object" aria-roledescription="rect mark container"><path aria-label="Node Degree: 19; Count of Records: 16" role="graphics-symbol" aria-roledescription="bar" d="M56,297.8181818181818h5v2.181818181818187h-5Z" fill="#0B6E99"/><path aria-label="Node Degree: 38; Count of Records: 2" role="graphics-symbol" aria-roledescription="bar" d="M84.5,299.72727272727275h5v0.27272727272725206h-5Z" fill="#0B6E99"/><path aria-label="Node Degree: 1; Count of Records: 2032" role="graphics-symbol" aria-roledescription="bar" d="M29,22.909090909090924h5v277.09090909090907h-5Z" fill="#0B6E99"/><path aria-label="Node Degree: 17; Count of Records: 10" role="graphics-symbol" aria-roledescription="bar" d="M53,298.6363636363636h5v1.363636363636374h-5Z" fill="#0B6E99"/><path aria-label="Node Degree: 11; Count of Records: 33" role="graphics-symbol" aria-roledescription="bar" d="M44,295.5h5v4.5h-5Z" fill="#0B6E99"/><path aria-label="Node Degree: 5; Count of Records: 156" role="graphics-symbol" aria-roledescription="bar" d="M35,278.72727272727275h5v21.272727272727252h-5Z" fill="#0B6E99"/><path aria-label="Node Degree: 20; Count of Records: 5" role="graphics-symbol" aria-roledescription="bar" d="M57.5,299.3181818181818h5v0.681818181818187h-5Z" fill="#0B6E99"/><path aria-label="Node Degree: 144; Count of Records: 1" role="graphics-symbol" aria-roledescription="bar" d="M243.49999999999997,299.8636363636364h5v0.13636363636362603h-5Z" fill="#0B6E99"/><path aria-label="Node Degree: 10; Count of Records: 55" role="graphics-symbol" aria-roledescription="bar" d="M42.5,292.5h5v7.5h-5Z" fill="#0B6E99"/><path aria-label="Node Degree: 24; Count of Records: 5" role="graphics-symbol" aria-roledescription="bar" d="M63.5,299.3181818181818h5v0.681818181818187h-5Z" fill="#0B6E99"/><path aria-label="Node Degree: 7; Count of Records: 78" role="graphics-symbol" aria-roledescription="bar" d="M38,289.3636363636364h5v10.636363636363626h-5Z" fill="#0B6E99"/><path aria-label="Node Degree: 79; Count of Records: 2" role="graphics-symbol" aria-roledescription="bar" d="M146,299.72727272727275h5v0.27272727272725206h-5Z" fill="#0B6E99"/><path aria-label="Node Degree: 130; Count of Records: 1" role="graphics-symbol" aria-roledescription="bar" d="M222.5,299.8636363636364h5v0.13636363636362603h-5Z" fill="#0B6E99"/><path aria-label="Node Degree: 15; Count of Records: 17" role="graphics-symbol" aria-roledescription="bar" d="M50,297.6818181818182h5v2.318181818181813h-5Z" fill="#0B6E99"/><path aria-label="Node Degree: 9; Count of Records: 55" role="graphics-symbol" aria-roledescription="bar" d="M41,292.5h5v7.5h-5Z" fill="#0B6E99"/><path aria-label="Node Degree: 34; Count of Records: 2" role="graphics-symbol" aria-roledescription="bar" d="M78.5,299.72727272727275h5v0.27272727272725206h-5Z" fill="#0B6E99"/><path aria-label="Node Degree: 6; Count of Records: 118" role="graphics-symbol" aria-roledescription="bar" d="M36.5,283.90909090909093h5v16.090909090909065h-5Z" fill="#0B6E99"/><path aria-label="Node Degree: 23; Count of Records: 10" role="graphics-symbol" aria-roledescription="bar" d="M62,298.6363636363636h5v1.363636363636374h-5Z" fill="#0B6E99"/><path aria-label="Node Degree: 89; Count of Records: 1" role="graphics-symbol" aria-roledescription="bar" d="M161,299.8636363636364h5v0.13636363636362603h-5Z" fill="#0B6E99"/><path aria-label="Node Degree: 27; Count of Records: 5" role="graphics-symbol" aria-roledescription="bar" d="M68,299.3181818181818h5v0.681818181818187h-5Z" fill="#0B6E99"/><path aria-label="Node Degree: 0; Count of Records: 501" role="graphics-symbol" aria-roledescription="bar" d="M27.5,231.68181818181816h5v68.31818181818184h-5Z" fill="#0B6E99"/><path aria-label="Node Degree: 18; Count of Records: 13" role="graphics-symbol" aria-roledescription="bar" d="M54.5,298.22727272727275h5v1.772727272727252h-5Z" fill="#0B6E99"/><path aria-label="Node Degree: 25; Count of Records: 5" role="graphics-symbol" aria-roledescription="bar" d="M65,299.3181818181818h5v0.681818181818187h-5Z" fill="#0B6E99"/><path aria-label="Node Degree: 8; Count of Records: 80" role="graphics-symbol" aria-roledescription="bar" d="M39.50000000000001,289.09090909090907h5v10.909090909090935h-5Z" fill="#0B6E99"/><path aria-label="Node Degree: 59; Count of Records: 2" role="graphics-symbol" aria-roledescription="bar" d="M116,299.72727272727275h5v0.27272727272725206h-5Z" fill="#0B6E99"/><path aria-label="Node Degree: 28; Count of Records: 3" role="graphics-symbol" aria-roledescription="bar" d="M69.5,299.5909090909091h5v0.4090909090908781h-5Z" fill="#0B6E99"/><path aria-label="Node Degree: 2; Count of Records: 747" role="graphics-symbol" aria-roledescription="bar" d="M30.5,198.13636363636363h5v101.86363636363637h-5Z" fill="#0B6E99"/><path aria-label="Node Degree: 49; Count of Records: 2" role="graphics-symbol" aria-roledescription="bar" d="M100.99999999999999,299.72727272727275h5v0.27272727272725206h-5Z" fill="#0B6E99"/><path aria-label="Node Degree: 52; Count of Records: 1" role="graphics-symbol" aria-roledescription="bar" d="M105.5,299.8636363636364h5v0.13636363636362603h-5Z" fill="#0B6E99"/><path aria-label="Node Degree: 123; Count of Records: 1" role="graphics-symbol" aria-roledescription="bar" d="M212,299.8636363636364h5v0.13636363636362603h-5Z" fill="#0B6E99"/><path aria-label="Node Degree: 3; Count of Records: 402" role="graphics-symbol" aria-roledescription="bar" d="M32,245.1818181818182h5v54.81818181818181h-5Z" fill="#0B6E99"/><path aria-label="Node Degree: 122; Count of Records: 1" role="graphics-symbol" aria-roledescription="bar" d="M210.5,299.8636363636364h5v0.13636363636362603h-5Z" fill="#0B6E99"/><path aria-label="Node Degree: 4; Count of Records: 232" role="graphics-symbol" aria-roledescription="bar" d="M33.5,268.3636363636364h5v31.636363636363626h-5Z" fill="#0B6E99"/><path aria-label="Node Degree: 16; Count of Records: 12" role="graphics-symbol" aria-roledescription="bar" d="M51.5,298.3636363636364h5v1.636363636363626h-5Z" fill="#0B6E99"/><path aria-label="Node Degree: 43; Count of Records: 2" role="graphics-symbol" aria-roledescription="bar" d="M92,299.72727272727275h5v0.27272727272725206h-5Z" fill="#0B6E99"/><path aria-label="Node Degree: 21; Count of Records: 10" role="graphics-symbol" aria-roledescription="bar" d="M58.99999999999999,298.6363636363636h5v1.363636363636374h-5Z" fill="#0B6E99"/><path aria-label="Node Degree: 31; Count of Records: 2" role="graphics-symbol" aria-roledescription="bar" d="M74,299.72727272727275h5v0.27272727272725206h-5Z" fill="#0B6E99"/><path aria-label="Node Degree: 175; Count of Records: 2" role="graphics-symbol" aria-roledescription="bar" d="M290,299.72727272727275h5v0.27272727272725206h-5Z" fill="#0B6E99"/><path aria-label="Node Degree: 26; Count of Records: 3" role="graphics-symbol" aria-roledescription="bar" d="M66.5,299.5909090909091h5v0.4090909090908781h-5Z" fill="#0B6E99"/><path aria-label="Node Degree: 164; Count of Records: 1" role="graphics-symbol" aria-roledescription="bar" d="M273.5,299.8636363636364h5v0.13636363636362603h-5Z" fill="#0B6E99"/><path aria-label="Node Degree: 48; Count of Records: 1" role="graphics-symbol" aria-roledescription="bar" d="M99.50000000000001,299.8636363636364h5v0.13636363636362603h-5Z" fill="#0B6E99"/><path aria-label="Node Degree: 91; Count of Records: 1" role="graphics-symbol" aria-roledescription="bar" d="M164.00000000000003,299.8636363636364h5v0.13636363636362603h-5Z" fill="#0B6E99"/><path aria-label="Node Degree: 50; Count of Records: 1" role="graphics-symbol" aria-roledescription="bar" d="M102.5,299.8636363636364h5v0.13636363636362603h-5Z" fill="#0B6E99"/><path aria-label="Node Degree: 62; Count of Records: 4" role="graphics-symbol" aria-roledescription="bar" d="M120.49999999999999,299.45454545454544h5v0.545454545454561h-5Z" fill="#0B6E99"/><path aria-label="Node Degree: 83; Count of Records: 1" role="graphics-symbol" aria-roledescription="bar" d="M152,299.8636363636364h5v0.13636363636362603h-5Z" fill="#0B6E99"/><path aria-label="Node Degree: 94; Count of Records: 1" role="graphics-symbol" aria-roledescription="bar" d="M168.49999999999997,299.8636363636364h5v0.13636363636362603h-5Z" fill="#0B6E99"/><path aria-label="Node Degree: 85; Count of Records: 1" role="graphics-symbol" aria-roledescription="bar" d="M155,299.8636363636364h5v0.13636363636362603h-5Z" fill="#0B6E99"/><path aria-label="Node Degree: 41; Count of Records: 2" role="graphics-symbol" aria-roledescription="bar" d="M89,299.72727272727275h5v0.27272727272725206h-5Z" fill="#0B6E99"/><path aria-label="Node Degree: 75; Count of Records: 1" role="graphics-symbol" aria-roledescription="bar" d="M140,299.8636363636364h5v0.13636363636362603h-5Z" fill="#0B6E99"/><path aria-label="Node Degree: 14; Count of Records: 24" role="graphics-symbol" aria-roledescription="bar" d="M48.50000000000001,296.72727272727275h5v3.272727272727252h-5Z" fill="#0B6E99"/><path aria-label="Node Degree: 42; Count of Records: 2" role="graphics-symbol" aria-roledescription="bar" d="M90.5,299.72727272727275h5v0.27272727272725206h-5Z" fill="#0B6E99"/><path aria-label="Node Degree: 136; Count of Records: 1" role="graphics-symbol" aria-roledescription="bar" d="M231.5,299.8636363636364h5v0.13636363636362603h-5Z" fill="#0B6E99"/><path aria-label="Node Degree: 45; Count of Records: 1" role="graphics-symbol" aria-roledescription="bar" d="M95,299.8636363636364h5v0.13636363636362603h-5Z" fill="#0B6E99"/><path aria-label="Node Degree: 124; Count of Records: 3" role="graphics-symbol" aria-roledescription="bar" d="M213.5,299.5909090909091h5v0.4090909090908781h-5Z" fill="#0B6E99"/><path aria-label="Node Degree: 68; Count of Records: 1" role="graphics-symbol" aria-roledescription="bar" d="M129.5,299.8636363636364h5v0.13636363636362603h-5Z" fill="#0B6E99"/><path aria-label="Node Degree: 44; Count of Records: 3" role="graphics-symbol" aria-roledescription="bar" d="M93.5,299.5909090909091h5v0.4090909090908781h-5Z" fill="#0B6E99"/><path aria-label="Node Degree: 108; Count of Records: 1" role="graphics-symbol" aria-roledescription="bar" d="M189.5,299.8636363636364h5v0.13636363636362603h-5Z" fill="#0B6E99"/><path aria-label="Node Degree: 32; Count of Records: 6" role="graphics-symbol" aria-roledescription="bar" d="M75.5,299.1818181818182h5v0.818181818181813h-5Z" fill="#0B6E99"/><path aria-label="Node Degree: 12; Count of Records: 35" role="graphics-symbol" aria-roledescription="bar" d="M45.5,295.22727272727275h5v4.772727272727252h-5Z" fill="#0B6E99"/><path aria-label="Node Degree: 29; Count of Records: 2" role="graphics-symbol" aria-roledescription="bar" d="M71,299.72727272727275h5v0.27272727272725206h-5Z" fill="#0B6E99"/><path aria-label="Node Degree: 22; Count of Records: 6" role="graphics-symbol" aria-roledescription="bar" d="M60.5,299.1818181818182h5v0.818181818181813h-5Z" fill="#0B6E99"/><path aria-label="Node Degree: 30; Count of Records: 5" role="graphics-symbol" aria-roledescription="bar" d="M72.5,299.3181818181818h5v0.681818181818187h-5Z" fill="#0B6E99"/><path aria-label="Node Degree: 13; Count of Records: 31" role="graphics-symbol" aria-roledescription="bar" d="M47,295.7727272727273h5v4.227272727272691h-5Z" fill="#0B6E99"/><path aria-label="Node Degree: 81; Count of Records: 1" role="graphics-symbol" aria-roledescription="bar" d="M149,299.8636363636364h5v0.13636363636362603h-5Z" fill="#0B6E99"/><path aria-label="Node Degree: 72; Count of Records: 1" role="graphics-symbol" aria-roledescription="bar" d="M135.5,299.8636363636364h5v0.13636363636362603h-5Z" fill="#0B6E99"/><path aria-label="Node Degree: 37; Count of Records: 2" role="graphics-symbol" aria-roledescription="bar" d="M82.99999999999999,299.72727272727275h5v0.27272727272725206h-5Z" fill="#0B6E99"/><path aria-label="Node Degree: 35; Count of Records: 1" role="graphics-symbol" aria-roledescription="bar" d="M80,299.8636363636364h5v0.13636363636362603h-5Z" fill="#0B6E99"/><path aria-label="Node Degree: 61; Count of Records: 1" role="graphics-symbol" aria-roledescription="bar" d="M119.00000000000001,299.8636363636364h5v0.13636363636362603h-5Z" fill="#0B6E99"/><path aria-label="Node Degree: 47; Count of Records: 3" role="graphics-symbol" aria-roledescription="bar" d="M98,299.5909090909091h5v0.4090909090908781h-5Z" fill="#0B6E99"/><path aria-label="Node Degree: 64; Count of Records: 1" role="graphics-symbol" aria-roledescription="bar" d="M123.5,299.8636363636364h5v0.13636363636362603h-5Z" fill="#0B6E99"/><path aria-label="Node Degree: 40; Count of Records: 1" role="graphics-symbol" aria-roledescription="bar" d="M87.5,299.8636363636364h5v0.13636363636362603h-5Z" fill="#0B6E99"/><path aria-label="Node Degree: 51; Count of Records: 1" role="graphics-symbol" aria-roledescription="bar" d="M104,299.8636363636364h5v0.13636363636362603h-5Z" fill="#0B6E99"/></g></g><path class="foreground" aria-hidden="true" d="" display="none"/></g></g></g></svg>