<svg xmlns="http://www.w3.org/2000/svg" xmlns:xlink="http://www.w3.org/1999/xlink" version="1.1" class="marks" width="752" height="776" viewBox="0 0 752 776"><rect width="752" height="776" fill="white"/><g fill="none" stroke-miterlimit="10" transform="translate(65,11)"><g class="mark-group role-frame root" role="graphics-object" aria-roledescription="group mark container"><g transform="translate(0,0)"><path class="background" aria-hidden="true" d="M0,0h0v0h0Z"/><g><g class="mark-group role-scope concat_0_group" role="graphics-object" aria-roledescription="group mark container"><g transform="translate(0,0)"><path class="background" aria-hidden="true" d="M0,0h0v0h0Z"/><g><g class="mark-group role-scope concat_0_concat_0_group" role="graphics-object" aria-roledescription="group mark container"><g transform="translate(0,0)"><path class="background" aria-hidden="true" d="M0.5,0.5h300v300h-300Z" stroke="#ddd"/><g><g class="mark-group role-axis" aria-hidden="true"><g transform="translate(0.5,0.5)"><path class="background" aria-hidden="true" d="M0,0h0v0h0Z" pointer-events="none"/><g><g class="mark-rule role-axis-grid" pointer-events="none"><line transform="translate(0,300)" x2="300" y2="0" stroke="#ddd" stroke-width="1" opacity="1"/><line transform="translate(0,263)" x2="300" y2="0" stroke="#ddd" stroke-width="1" opacity="1"/><line transform="translate(0,225)" x2="300" y2="0" stroke="#ddd" stroke-width="1" opacity="1"/><line transform="translate(0,188)" x2="300" y2="0" stroke="#ddd" stroke-width="1" opacity="1"/><line transform="translate(0,150)" x2="300" y2="0" stroke="#ddd" stroke-width="1" opacity="1"/><line transform="translate(0,113)" x2="300" y2="0" stroke="#ddd" stroke-width="1" opacity="1"/><line transform="translate(0,75)" x2="300" y2="0" stroke="#ddd" stroke-width="1" opacity="1"/><line transform="translate(0,38)" x2="300" y2="0" stroke="#ddd" stroke-width="1" opacity="1"/><line transform="translate(0,0)" x2="300" y2="0" stroke="#ddd" stroke-width="1" opacity="1"/></g></g><path class="foreground" aria-hidden="true" d="" pointer-events="none" display="none"/></g></g><g class="mark-group role-axis" role="graphics-symbol" aria-roledescription="axis" aria-label="X-axis for a discrete scale with 7 values: corpus_ner_geo, huffington, mooc, osama, pro12_mentions, superbowl, wikinews"><g transform="translate(0.5,300.5)"><path class="background" aria-hidden="true" d="M0,0h0v0h0Z" pointer-events="none"/><g><g class="mark-rule role-axis-tick" pointer-events="none"><line transform="translate(21,0)" x2="0" y2="5" stroke="#888" stroke-width="1" opacity="1"/><line transform="translate(64,0)" x2="0" y2="5" stroke="#888" stroke-width="1" opacity="1"/><line transform="translate(107,0)" x2="0" y2="5" stroke="#888" stroke-width="1" opacity="1"/><line transform="translate(149,0)" x2="0" y2="5" stroke="#888" stroke-width="1" opacity="1"/><line transform="translate(192,0)" x2="0" y2="5" stroke="#888" stroke-width="1" opacity="1"/><line transform="translate(235,0)" x2="0" y2="5" stroke="#888" stroke-width="1" opacity="1"/><line transform="translate(278,0)" x2="0" y2="5" stroke="#888" stroke-width="1" opacity="1"/></g><g class="mark-text role-axis-label" pointer-events="none"><text text-anchor="end" transform="translate(20.928571428571423,7) rotate(315) translate(0,8)" font-family="sans-serif" font-size="10px" fill="#000" opacity="1">corpus_ner_geo</text><text text-anchor="end" transform="translate(63.78571428571428,7) rotate(315) translate(0,8)" font-family="sans-serif" font-size="10px" fill="#000" opacity="1">huffington</text><text text-anchor="end" transform="translate(106.64285714285714,7) rotate(315) translate(0,8)" font-family="sans-serif" font-size="10px" fill="#000" opacity="1">mooc</text><text text-anchor="end" transform="translate(149.49999999999997,7) rotate(315) translate(0,8)" font-family="sans-serif" font-size="10px" fill="#000" opacity="1">osama</text><text text-anchor="end" transform="translate(192.35714285714283,7) rotate(315) translate(0,8)" font-family="sans-serif" font-size="10px" fill="#000" opacity="1">pro12_mentions</text><text text-anchor="end" transform="translate(235.2142857142857,7) rotate(315) translate(0,8)" font-family="sans-serif" font-size="10px" fill="#000" opacity="1">superbowl</text><text text-anchor="end" transform="translate(278.0714285714285,7) rotate(315) translate(0,8)" font-family="sans-serif" font-size="10px" fill="#000" opacity="1">wikinews</text></g><g class="mark-rule role-axis-domain" pointer-events="none"><line transform="translate(0,0)" x2="300" y2="0" stroke="#888" stroke-width="1" opacity="1"/></g></g><path class="foreground" aria-hidden="true" d="" pointer-events="none" display="none"/></g></g><g class="mark-group role-axis" role="graphics-symbol" aria-roledescription="axis" aria-label="Y-axis titled 'Node Count' for a linear scale with values from 0 to 400,000"><g transform="translate(0.5,0.5)"><path class="background" aria-hidden="true" d="M0,0h0v0h0Z" pointer-events="none"/><g><g class="mark-rule role-axis-tick" pointer-events="none"><line transform="translate(0,300)" x2="-5" y2="0" stroke="#888" stroke-width="1" opacity="1"/><line transform="translate(0,263)" x2="-5" y2="0" stroke="#888" stroke-width="1" opacity="1"/><line transform="translate(0,225)" x2="-5" y2="0" stroke="#888" stroke-width="1" opacity="1"/><line transform="translate(0,188)" x2="-5" y2="0" stroke="#888" stroke-width="1" opacity="1"/><line transform="translate(0,150)" x2="-5" y2="0" stroke="#888" stroke-width="1" opacity="1"/><line transform="translate(0,113)" x2="-5" y2="0" stroke="#888" stroke-width="1" opacity="1"/><line transform="translate(0,75)" x2="-5" y2="0" stroke="#888" stroke-width="1" opacity="1"/><line transform="translate(0,38)" x2="-5" y2="0" stroke="#888" stroke-width="1" opacity="1"/><line transform="translate(0,0)" x2="-5" y2="0" stroke="#888" stroke-width="1" opacity="1"/></g><g class="mark-text role-axis-label" pointer-events="none"><text text-anchor="end" transform="translate(-7,303)" font-family="sans-serif" font-size="10px" fill="#000" opacity="1">0</text><text text-anchor="end" transform="translate(-7,265.5)" font-family="sans-serif" font-size="10px" fill="#000" opacity="1">50,000</text><text text-anchor="end" transform="translate(-7,228)" font-family="sans-serif" font-size="10px" fill="#000" opacity="1">100,000</text><text text-anchor="end" transform="translate(-7,190.5)" font-family="sans-serif" font-size="10px" fill="#000" opacity="1">150,000</text><text text-anchor="end" transform="translate(-7,153)" font-family="sans-serif" font-size="10px" fill="#000" opacity="1">200,000</text><text text-anchor="end" transform="translate(-7,115.5)" font-family="sans-serif" font-size="10px" fill="#000" opacity="1">250,000</text><text text-anchor="end" transform="translate(-7,78)" font-family="sans-serif" font-size="10px" fill="#000" opacity="1">300,000</text><text text-anchor="end" transform="translate(-7,40.5)" font-family="sans-serif" font-size="10px" fill="#000" opacity="1">350,000</text><text text-anchor="end" transform="translate(-7,3)" font-family="sans-serif" font-size="10px" fill="#000" opacity="1">400,000</text></g><g class="mark-rule role-axis-domain" pointer-events="none"><line transform="translate(0,300)" x2="0" y2="-300" stroke="#888" stroke-width="1" opacity="1"/></g><g class="mark-text role-axis-title" pointer-events="none"><text text-anchor="middle" transform="translate(-47.1474609375,150) rotate(-90) translate(0,-2)" font-family="sans-serif" font-size="11px" font-weight="bold" fill="#000" opacity="1">Node Count</text></g></g><path class="foreground" aria-hidden="true" d="" pointer-events="none" display="none"/></g></g><g class="mark-rect role-mark concat_0_concat_0_marks" role="graphics-object" aria-roledescription="rect mark container"><path aria-label="File: pro12_mentions; Node Count: 12" role="graphics-symbol" aria-roledescription="bar" d="M173.57142857142856,299.991h38.57142857142857v0.009000000000014552h-38.57142857142857Z" fill="#0F7B6C"/><path aria-label="File: wikinews; Node Count: 94343" role="graphics-symbol" aria-roledescription="bar" d="M259.2857142857142,229.24274999999997h38.57142857142857v70.75725000000003h-38.57142857142857Z" fill="#0F7B6C"/><path aria-label="File: mooc; Node Count: 7144" role="graphics-symbol" aria-roledescription="bar" d="M87.85714285714285,294.642h38.57142857142857v5.358000000000004h-38.57142857142857Z" fill="#0F7B6C"/><path aria-label="File: corpus_ner_geo; Node Count: 386412" role="graphics-symbol" aria-roledescription="bar" d="M2.142857142857139,10.190999999999983h38.57142857142857v289.809h-38.57142857142857Z" fill="#0F7B6C"/><path aria-label="File: osama; Node Count: 43050" role="graphics-symbol" aria-roledescription="bar" d="M130.7142857142857,267.71250000000003h38.57142857142857v32.287499999999966h-38.57142857142857Z" fill="#0F7B6C"/><path aria-label="File: huffington; Node Count: 340788" role="graphics-symbol" aria-roledescription="bar" d="M44.99999999999999,44.409h38.57142857142857v255.591h-38.57142857142857Z" fill="#0F7B6C"/><path aria-label="File: superbowl; Node Count: 49059" role="graphics-symbol" aria-roledescription="bar" d="M216.42857142857142,263.20574999999997h38.57142857142857v36.794250000000034h-38.57142857142857Z" fill="#0F7B6C"/></g></g><path class="foreground" aria-hidden="true" d="" display="none"/></g></g><g class="mark-group role-scope concat_0_concat_1_group" role="graphics-object" aria-roledescription="group mark container"><g transform="translate(381,0)"><path class="background" aria-hidden="true" d="M0.5,0.5h300v300h-300Z" stroke="#ddd"/><g><g class="mark-group role-axis" aria-hidden="true"><g transform="translate(0.5,0.5)"><path class="background" aria-hidden="true" d="M0,0h0v0h0Z" pointer-events="none"/><g><g class="mark-rule role-axis-grid" pointer-events="none"><line transform="translate(0,300)" x2="300" y2="0" stroke="#ddd" stroke-width="1" opacity="1"/><line transform="translate(0,250)" x2="300" y2="0" stroke="#ddd" stroke-width="1" opacity="1"/><line transform="translate(0,200)" x2="300" y2="0" stroke="#ddd" stroke-width="1" opacity="1"/><line transform="translate(0,150)" x2="300" y2="0" stroke="#ddd" stroke-width="1" opacity="1"/><line transform="translate(0,100)" x2="300" y2="0" stroke="#ddd" stroke-width="1" opacity="1"/><line transform="translate(0,50)" x2="300" y2="0" stroke="#ddd" stroke-width="1" opacity="1"/><line transform="translate(0,0)" x2="300" y2="0" stroke="#ddd" stroke-width="1" opacity="1"/></g></g><path class="foreground" aria-hidden="true" d="" pointer-events="none" display="none"/></g></g><g class="mark-group role-axis" role="graphics-symbol" aria-roledescription="axis" aria-label="X-axis for a discrete scale with 7 values: corpus_ner_geo, huffington, mooc, osama, pro12_mentions, superbowl, wikinews"><g transform="translate(0.5,300.5)"><path class="background" aria-hidden="true" d="M0,0h0v0h0Z" pointer-events="none"/><g><g class="mark-rule role-axis-tick" pointer-events="none"><line transform="translate(21,0)" x2="0" y2="5" stroke="#888" stroke-width="1" opacity="1"/><line transform="translate(64,0)" x2="0" y2="5" stroke="#888" stroke-width="1" opacity="1"/><line transform="translate(107,0)" x2="0" y2="5" stroke="#888" stroke-width="1" opacity="1"/><line transform="translate(149,0)" x2="0" y2="5" stroke="#888" stroke-width="1" opacity="1"/><line transform="translate(192,0)" x2="0" y2="5" stroke="#888" stroke-width="1" opacity="1"/><line transform="translate(235,0)" x2="0" y2="5" stroke="#888" stroke-width="1" opacity="1"/><line transform="translate(278,0)" x2="0" y2="5" stroke="#888" stroke-width="1" opacity="1"/></g><g class="mark-text role-axis-label" pointer-events="none"><text text-anchor="end" transform="translate(20.928571428571423,7) rotate(315) translate(0,8)" font-family="sans-serif" font-size="10px" fill="#000" opacity="1">corpus_ner_geo</text><text text-anchor="end" transform="translate(63.78571428571428,7) rotate(315) translate(0,8)" font-family="sans-serif" font-size="10px" fill="#000" opacity="1">huffington</text><text text-anchor="end" transform="translate(106.64285714285714,7) rotate(315) translate(0,8)" font-family="sans-serif" font-size="10px" fill="#000" opacity="1">mooc</text><text text-anchor="end" transform="translate(149.49999999999997,7) rotate(315) translate(0,8)" font-family="sans-serif" font-size="10px" fill="#000" opacity="1">osama</text><text text-anchor="end" transform="translate(192.35714285714283,7) rotate(315) translate(0,8)" font-family="sans-serif" font-size="10px" fill="#000" opacity="1">pro12_mentions</text><text text-anchor="end" transform="translate(235.2142857142857,7) rotate(315) translate(0,8)" font-family="sans-serif" font-size="10px" fill="#000" opacity="1">superbowl</text><text text-anchor="end" transform="translate(278.0714285714285,7) rotate(315) translate(0,8)" font-family="sans-serif" font-size="10px" fill="#000" opacity="1">wikinews</text></g><g class="mark-rule role-axis-domain" pointer-events="none"><line transform="translate(0,0)" x2="300" y2="0" stroke="#888" stroke-width="1" opacity="1"/></g></g><path class="foreground" aria-hidden="true" d="" pointer-events="none" display="none"/></g></g><g class="mark-group role-axis" role="graphics-symbol" aria-roledescription="axis" aria-label="Y-axis titled 'Edge Count' for a linear scale with values from 0 to 600,000"><g transform="translate(0.5,0.5)"><path class="background" aria-hidden="true" d="M0,0h0v0h0Z" pointer-events="none"/><g><g class="mark-rule role-axis-tick" pointer-events="none"><line transform="translate(0,300)" x2="-5" y2="0" stroke="#888" stroke-width="1" opacity="1"/><line transform="translate(0,250)" x2="-5" y2="0" stroke="#888" stroke-width="1" opacity="1"/><line transform="translate(0,200)" x2="-5" y2="0" stroke="#888" stroke-width="1" opacity="1"/><line transform="translate(0,150)" x2="-5" y2="0" stroke="#888" stroke-width="1" opacity="1"/><line transform="translate(0,100)" x2="-5" y2="0" stroke="#888" stroke-width="1" opacity="1"/><line transform="translate(0,50)" x2="-5" y2="0" stroke="#888" stroke-width="1" opacity="1"/><line transform="translate(0,0)" x2="-5" y2="0" stroke="#888" stroke-width="1" opacity="1"/></g><g class="mark-text role-axis-label" pointer-events="none"><text text-anchor="end" transform="translate(-7,303)" font-family="sans-serif" font-size="10px" fill="#000" opacity="1">0</text><text text-anchor="end" transform="translate(-7,253)" font-family="sans-serif" font-size="10px" fill="#000" opacity="1">100,000</text><text text-anchor="end" transform="translate(-7,203.00000000000003)" font-family="sans-serif" font-size="10px" fill="#000" opacity="1">200,000</text><text text-anchor="end" transform="translate(-7,153)" font-family="sans-serif" font-size="10px" fill="#000" opacity="1">300,000</text><text text-anchor="end" transform="translate(-7,103.00000000000001)" font-family="sans-serif" font-size="10px" fill="#000" opacity="1">400,000</text><text text-anchor="end" transform="translate(-7,52.999999999999986)" font-family="sans-serif" font-size="10px" fill="#000" opacity="1">500,000</text><text text-anchor="end" transform="translate(-7,3)" font-family="sans-serif" font-size="10px" fill="#000" opacity="1">600,000</text></g><g class="mark-rule role-axis-domain" pointer-events="none"><line transform="translate(0,300)" x2="0" y2="-300" stroke="#888" stroke-width="1" opacity="1"/></g><g class="mark-text role-axis-title" pointer-events="none"><text text-anchor="middle" transform="translate(-47.1474609375,150) rotate(-90) translate(0,-2)" font-family="sans-serif" font-size="11px" font-weight="bold" fill="#000" opacity="1">Edge Count</text></g></g><path class="foreground" aria-hidden="true" d="" pointer-events="none" display="none"/></g></g><g class="mark-rect role-mark concat_0_concat_1_marks" role="graphics-object" aria-roledescription="rect mark container"><path aria-label="File: pro12_mentions; Edge Count: 3151" role="graphics-symbol" aria-roledescription="bar" d="M173.57142857142856,298.4245h38.57142857142857v1.5754999999999768h-38.57142857142857Z" fill="#0B6E99"/><path aria-label="File: wikinews; Edge Count: 11267" role="graphics-symbol" aria-roledescription="bar" d="M259.2857142857142,294.3665h38.57142857142857v5.633500000000026h-38.57142857142857Z" fill="#0B6E99"/><path aria-label="File: mooc; Edge Count: 411749" role="graphics-symbol" aria-roledescription="bar" d="M87.85714285714285,94.12549999999999h38.57142857142857v205.8745h-38.57142857142857Z" fill="#0B6E99"/><path aria-label="File: corpus_ner_geo; Edge Count: 90811" role="graphics-symbol" aria-roledescription="bar" d="M2.142857142857139,254.5945h38.57142857142857v45.40549999999999h-38.57142857142857Z" fill="#0B6E99"/><path aria-label="File: osama; Edge Count: 99177" role="graphics-symbol" aria-roledescription="bar" d="M130.7142857142857,250.41150000000002h38.57142857142857v49.58849999999998h-38.57142857142857Z" fill="#0B6E99"/><path aria-label="File: huffington; Edge Count: 75293" role="graphics-symbol" aria-roledescription="bar" d="M44.99999999999999,262.3535h38.57142857142857v37.6465h-38.57142857142857Z" fill="#0B6E99"/><path aria-label="File: superbowl; Edge Count: 556820" role="graphics-symbol" aria-roledescription="bar" d="M216.42857142857142,21.589999999999986h38.57142857142857v278.41h-38.57142857142857Z" fill="#0B6E99"/></g></g><path class="foreground" aria-hidden="true" d="" display="none"/></g></g></g><path class="foreground" aria-hidden="true" d="" display="none"/></g></g><g class="mark-group role-scope concat_1_group" role="graphics-object" aria-roledescription="group mark container"><g transform="translate(0,393)"><path class="background" aria-hidden="true" d="M0,0h0v0h0Z"/><g><g class="mark-group role-scope concat_1_concat_0_group" role="graphics-object" aria-roledescription="group mark container"><g transform="translate(0,0)"><path class="background" aria-hidden="true" d="M0.5,0.5h300v300h-300Z" stroke="#ddd"/><g><g class="mark-group role-axis" aria-hidden="true"><g transform="translate(0.5,0.5)"><path class="background" aria-hidden="true" d="M0,0h0v0h0Z" pointer-events="none"/><g><g class="mark-rule role-axis-grid" pointer-events="none"><line transform="translate(0,300)" x2="300" y2="0" stroke="#ddd" stroke-width="1" opacity="1"/><line transform="translate(0,270)" x2="300" y2="0" stroke="#ddd" stroke-width="1" opacity="1"/><line transform="translate(0,240)" x2="300" y2="0" stroke="#ddd" stroke-width="1" opacity="1"/><line transform="translate(0,210)" x2="300" y2="0" stroke="#ddd" stroke-width="1" opacity="1"/><line transform="translate(0,180)" x2="300" y2="0" stroke="#ddd" stroke-width="1" opacity="1"/><line transform="translate(0,150)" x2="300" y2="0" stroke="#ddd" stroke-width="1" opacity="1"/><line transform="translate(0,120)" x2="300" y2="0" stroke="#ddd" stroke-width="1" opacity="1"/><line transform="translate(0,90)" x2="300" y2="0" stroke="#ddd" stroke-width="1" opacity="1"/><line transform="translate(0,60)" x2="300" y2="0" stroke="#ddd" stroke-width="1" opacity="1"/><line transform="translate(0,30)" x2="300" y2="0" stroke="#ddd" stroke-width="1" opacity="1"/><line transform="translate(0,0)" x2="300" y2="0" stroke="#ddd" stroke-width="1" opacity="1"/></g></g><path class="foreground" aria-hidden="true" d="" pointer-events="none" display="none"/></g></g><g class="mark-group role-axis" role="graphics-symbol" aria-roledescription="axis" aria-label="X-axis for a discrete scale with 7 values: corpus_ner_geo, huffington, mooc, osama, pro12_mentions, superbowl, wikinews"><g transform="translate(0.5,300.5)"><path class="background" aria-hidden="true" d="M0,0h0v0h0Z" pointer-events="none"/><g><g class="mark-rule role-axis-tick" pointer-events="none"><line transform="translate(21,0)" x2="0" y2="5" stroke="#888" stroke-width="1" opacity="1"/><line transform="translate(64,0)" x2="0" y2="5" stroke="#888" stroke-width="1" opacity="1"/><line transform="translate(107,0)" x2="0" y2="5" stroke="#888" stroke-width="1" opacity="1"/><line transform="translate(149,0)" x2="0" y2="5" stroke="#888" stroke-width="1" opacity="1"/><line transform="translate(192,0)" x2="0" y2="5" stroke="#888" stroke-width="1" opacity="1"/><line transform="translate(235,0)" x2="0" y2="5" stroke="#888" stroke-width="1" opacity="1"/><line transform="translate(278,0)" x2="0" y2="5" stroke="#888" stroke-width="1" opacity="1"/></g><g class="mark-text role-axis-label" pointer-events="none"><text text-anchor="end" transform="translate(20.928571428571423,7) rotate(315) translate(0,8)" font-family="sans-serif" font-size="10px" fill="#000" opacity="1">corpus_ner_geo</text><text text-anchor="end" transform="translate(63.78571428571428,7) rotate(315) translate(0,8)" font-family="sans-serif" font-size="10px" fill="#000" opacity="1">huffington</text><text text-anchor="end" transform="translate(106.64285714285714,7) rotate(315) translate(0,8)" font-family="sans-serif" font-size="10px" fill="#000" opacity="1">mooc</text><text text-anchor="end" transform="translate(149.49999999999997,7) rotate(315) translate(0,8)" font-family="sans-serif" font-size="10px" fill="#000" opacity="1">osama</text><text text-anchor="end" transform="translate(192.35714285714283,7) rotate(315) translate(0,8)" font-family="sans-serif" font-size="10px" fill="#000" opacity="1">pro12_mentions</text><text text-anchor="end" transform="translate(235.2142857142857,7) rotate(315) translate(0,8)" font-family="sans-serif" font-size="10px" fill="#000" opacity="1">superbowl</text><text text-anchor="end" transform="translate(278.0714285714285,7) rotate(315) translate(0,8)" font-family="sans-serif" font-size="10px" fill="#000" opacity="1">wikinews</text></g><g class="mark-rule role-axis-domain" pointer-events="none"><line transform="translate(0,0)" x2="300" y2="0" stroke="#888" stroke-width="1" opacity="1"/></g></g><path class="foreground" aria-hidden="true" d="" pointer-events="none" display="none"/></g></g><g class="mark-group role-axis" role="graphics-symbol" aria-roledescription="axis" aria-label="Y-axis titled 'Mean Degree' for a linear scale with values from 0 to 500"><g transform="translate(0.5,0.5)"><path class="background" aria-hidden="true" d="M0,0h0v0h0Z" pointer-events="none"/><g><g class="mark-rule role-axis-tick" pointer-events="none"><line transform="translate(0,300)" x2="-5" y2="0" stroke="#888" stroke-width="1" opacity="1"/><line transform="translate(0,270)" x2="-5" y2="0" stroke="#888" stroke-width="1" opacity="1"/><line transform="translate(0,240)" x2="-5" y2="0" stroke="#888" stroke-width="1" opacity="1"/><line transform="translate(0,210)" x2="-5" y2="0" stroke="#888" stroke-width="1" opacity="1"/><line transform="translate(0,180)" x2="-5" y2="0" stroke="#888" stroke-width="1" opacity="1"/><line transform="translate(0,150)" x2="-5" y2="0" stroke="#888" stroke-width="1" opacity="1"/><line transform="translate(0,120)" x2="-5" y2="0" stroke="#888" stroke-width="1" opacity="1"/><line transform="translate(0,90)" x2="-5" y2="0" stroke="#888" stroke-width="1" opacity="1"/><line transform="translate(0,60)" x2="-5" y2="0" stroke="#888" stroke-width="1" opacity="1"/><line transform="translate(0,30)" x2="-5" y2="0" stroke="#888" stroke-width="1" opacity="1"/><line transform="translate(0,0)" x2="-5" y2="0" stroke="#888" stroke-width="1" opacity="1"/></g><g class="mark-text role-axis-label" pointer-events="none"><text text-anchor="end" transform="translate(-7,303)" font-family="sans-serif" font-size="10px" fill="#000" opacity="1">0</text><text text-anchor="end" transform="translate(-7,273)" font-family="sans-serif" font-size="10px" fill="#000" opacity="1">50</text><text text-anchor="end" transform="translate(-7,243)" font-family="sans-serif" font-size="10px" fill="#000" opacity="1">100</text><text text-anchor="end" transform="translate(-7,213)" font-family="sans-serif" font-size="10px" fill="#000" opacity="1">150</text><text text-anchor="end" transform="translate(-7,183)" font-family="sans-serif" font-size="10px" fill="#000" opacity="1">200</text><text text-anchor="end" transform="translate(-7,153)" font-family="sans-serif" font-size="10px" fill="#000" opacity="1">250</text><text text-anchor="end" transform="translate(-7,123)" font-family="sans-serif" font-size="10px" fill="#000" opacity="1">300</text><text text-anchor="end" transform="translate(-7,93.00000000000001)" font-family="sans-serif" font-size="10px" fill="#000" opacity="1">350</text><text text-anchor="end" transform="translate(-7,62.999999999999986)" font-family="sans-serif" font-size="10px" fill="#000" opacity="1">400</text><text text-anchor="end" transform="translate(-7,32.99999999999999)" font-family="sans-serif" font-size="10px" fill="#000" opacity="1">450</text><text text-anchor="end" transform="translate(-7,3)" font-family="sans-serif" font-size="10px" fill="#000" opacity="1">500</text></g><g class="mark-rule role-axis-domain" pointer-events="none"><line transform="translate(0,300)" x2="0" y2="-300" stroke="#888" stroke-width="1" opacity="1"/></g><g class="mark-text role-axis-title" pointer-events="none"><text text-anchor="middle" transform="translate(-27.6845703125,150) rotate(-90) translate(0,-2)" font-family="sans-serif" font-size="11px" font-weight="bold" fill="#000" opacity="1">Mean Degree</text></g></g><path class="foreground" aria-hidden="true" d="" pointer-events="none" display="none"/></g></g><g class="mark-rect role-mark concat_1_concat_0_marks" role="graphics-object" aria-roledescription="rect mark container"><path aria-label="File: pro12_mentions; Mean Degree: 484.769230769" role="graphics-symbol" aria-roledescription="bar" d="M173.57142857142856,9.138461538461529h38.57142857142857v290.8615384615385h-38.57142857142857Z" fill="#AD1A72"/><path aria-label="File: wikinews; Mean Degree: 2.21816138982" role="graphics-symbol" aria-roledescription="bar" d="M259.2857142857142,298.66910316610665h38.57142857142857v1.3308968338933482h-38.57142857142857Z" fill="#AD1A72"/><path aria-label="File: mooc; Mean Degree: 115.255143457" role="graphics-symbol" aria-roledescription="bar" d="M87.85714285714285,230.84691392582226h38.57142857142857v69.15308607417774h-38.57142857142857Z" fill="#AD1A72"/><path aria-label="File: corpus_ner_geo; Mean Degree: 5.36053228161" role="graphics-symbol" aria-roledescription="bar" d="M2.142857142857139,296.7836806310363h38.57142857142857v3.2163193689636955h-38.57142857142857Z" fill="#AD1A72"/><path aria-label="File: osama; Mean Degree: 4.60741910757" role="graphics-symbol" aria-roledescription="bar" d="M130.7142857142857,297.23554853545795h38.57142857142857v2.7644514645420486h-38.57142857142857Z" fill="#AD1A72"/><path aria-label="File: huffington; Mean Degree: 5.27126835452" role="graphics-symbol" aria-roledescription="bar" d="M44.99999999999999,296.8372389872883h38.57142857142857v3.1627610127117123h-38.57142857142857Z" fill="#AD1A72"/><path aria-label="File: superbowl; Mean Degree: 22.6995515695" role="graphics-symbol" aria-roledescription="bar" d="M216.42857142857142,286.380269058296h38.57142857142857v13.619730941704006h-38.57142857142857Z" fill="#AD1A72"/></g></g><path class="foreground" aria-hidden="true" d="" display="none"/></g></g><g class="mark-group role-scope concat_1_concat_1_group" role="graphics-object" aria-roledescription="group mark container"><g transform="translate(381,0)"><path class="background" aria-hidden="true" d="M0.5,0.5h300v300h-300Z" stroke="#ddd"/><g><g class="mark-group role-axis" aria-hidden="true"><g transform="translate(0.5,0.5)"><path class="background" aria-hidden="true" d="M0,0h0v0h0Z" pointer-events="none"/><g><g class="mark-rule role-axis-grid" pointer-events="none"><line transform="translate(0,300)" x2="300" y2="0" stroke="#ddd" stroke-width="1" opacity="1"/><line transform="translate(0,275)" x2="300" y2="0" stroke="#ddd" stroke-width="1" opacity="1"/><line transform="translate(0,250)" x2="300" y2="0" stroke="#ddd" stroke-width="1" opacity="1"/><line transform="translate(0,225)" x2="300" y2="0" stroke="#ddd" stroke-width="1" opacity="1"/><line transform="translate(0,200)" x2="300" y2="0" stroke="#ddd" stroke-width="1" opacity="1"/><line transform="translate(0,175)" x2="300" y2="0" stroke="#ddd" stroke-width="1" opacity="1"/><line transform="translate(0,150)" x2="300" y2="0" stroke="#ddd" stroke-width="1" opacity="1"/><line transform="translate(0,125)" x2="300" y2="0" stroke="#ddd" stroke-width="1" opacity="1"/><line transform="translate(0,100)" x2="300" y2="0" stroke="#ddd" stroke-width="1" opacity="1"/><line transform="translate(0,75)" x2="300" y2="0" stroke="#ddd" stroke-width="1" opacity="1"/><line transform="translate(0,50)" x2="300" y2="0" stroke="#ddd" stroke-width="1" opacity="1"/><line transform="translate(0,25)" x2="300" y2="0" stroke="#ddd" stroke-width="1" opacity="1"/><line transform="translate(0,0)" x2="300" y2="0" stroke="#ddd" stroke-width="1" opacity="1"/></g></g><path class="foreground" aria-hidden="true" d="" pointer-events="none" display="none"/></g></g><g class="mark-group role-axis" role="graphics-symbol" aria-roledescription="axis" aria-label="X-axis for a discrete scale with 7 values: corpus_ner_geo, huffington, mooc, osama, pro12_mentions, superbowl, wikinews"><g transform="translate(0.5,300.5)"><path class="background" aria-hidden="true" d="M0,0h0v0h0Z" pointer-events="none"/><g><g class="mark-rule role-axis-tick" pointer-events="none"><line transform="translate(21,0)" x2="0" y2="5" stroke="#888" stroke-width="1" opacity="1"/><line transform="translate(64,0)" x2="0" y2="5" stroke="#888" stroke-width="1" opacity="1"/><line transform="translate(107,0)" x2="0" y2="5" stroke="#888" stroke-width="1" opacity="1"/><line transform="translate(149,0)" x2="0" y2="5" stroke="#888" stroke-width="1" opacity="1"/><line transform="translate(192,0)" x2="0" y2="5" stroke="#888" stroke-width="1" opacity="1"/><line transform="translate(235,0)" x2="0" y2="5" stroke="#888" stroke-width="1" opacity="1"/><line transform="translate(278,0)" x2="0" y2="5" stroke="#888" stroke-width="1" opacity="1"/></g><g class="mark-text role-axis-label" pointer-events="none"><text text-anchor="end" transform="translate(20.928571428571423,7) rotate(315) translate(0,8)" font-family="sans-serif" font-size="10px" fill="#000" opacity="1">corpus_ner_geo</text><text text-anchor="end" transform="translate(63.78571428571428,7) rotate(315) translate(0,8)" font-family="sans-serif" font-size="10px" fill="#000" opacity="1">huffington</text><text text-anchor="end" transform="translate(106.64285714285714,7) rotate(315) translate(0,8)" font-family="sans-serif" font-size="10px" fill="#000" opacity="1">mooc</text><text text-anchor="end" transform="translate(149.49999999999997,7) rotate(315) translate(0,8)" font-family="sans-serif" font-size="10px" fill="#000" opacity="1">osama</text><text text-anchor="end" transform="translate(192.35714285714283,7) rotate(315) translate(0,8)" font-family="sans-serif" font-size="10px" fill="#000" opacity="1">pro12_mentions</text><text text-anchor="end" transform="translate(235.2142857142857,7) rotate(315) translate(0,8)" font-family="sans-serif" font-size="10px" fill="#000" opacity="1">superbowl</text><text text-anchor="end" transform="translate(278.0714285714285,7) rotate(315) translate(0,8)" font-family="sans-serif" font-size="10px" fill="#000" opacity="1">wikinews</text></g><g class="mark-rule role-axis-domain" pointer-events="none"><line transform="translate(0,0)" x2="300" y2="0" stroke="#888" stroke-width="1" opacity="1"/></g></g><path class="foreground" aria-hidden="true" d="" pointer-events="none" display="none"/></g></g><g class="mark-group role-axis" role="graphics-symbol" aria-roledescription="axis" aria-label="Y-axis titled 'Maximum Degree' for a linear scale with values from 0 to 240,000"><g transform="translate(0.5,0.5)"><path class="background" aria-hidden="true" d="M0,0h0v0h0Z" pointer-events="none"/><g><g class="mark-rule role-axis-tick" pointer-events="none"><line transform="translate(0,300)" x2="-5" y2="0" stroke="#888" stroke-width="1" opacity="1"/><line transform="translate(0,275)" x2="-5" y2="0" stroke="#888" stroke-width="1" opacity="1"/><line transform="translate(0,250)" x2="-5" y2="0" stroke="#888" stroke-width="1" opacity="1"/><line transform="translate(0,225)" x2="-5" y2="0" stroke="#888" stroke-width="1" opacity="1"/><line transform="translate(0,200)" x2="-5" y2="0" stroke="#888" stroke-width="1" opacity="1"/><line transform="translate(0,175)" x2="-5" y2="0" stroke="#888" stroke-width="1" opacity="1"/><line transform="translate(0,150)" x2="-5" y2="0" stroke="#888" stroke-width="1" opacity="1"/><line transform="translate(0,125)" x2="-5" y2="0" stroke="#888" stroke-width="1" opacity="1"/><line transform="translate(0,100)" x2="-5" y2="0" stroke="#888" stroke-width="1" opacity="1"/><line transform="translate(0,75)" x2="-5" y2="0" stroke="#888" stroke-width="1" opacity="1"/><line transform="translate(0,50)" x2="-5" y2="0" stroke="#888" stroke-width="1" opacity="1"/><line transform="translate(0,25)" x2="-5" y2="0" stroke="#888" stroke-width="1" opacity="1"/><line transform="translate(0,0)" x2="-5" y2="0" stroke="#888" stroke-width="1" opacity="1"/></g><g class="mark-text role-axis-label" pointer-events="none"><text text-anchor="end" transform="translate(-7,303)" font-family="sans-serif" font-size="10px" fill="#000" opacity="1">0</text><text text-anchor="end" transform="translate(-7,278)" font-family="sans-serif" font-size="10px" fill="#000" opacity="1">20,000</text><text text-anchor="end" transform="translate(-7,253)" font-family="sans-serif" font-size="10px" fill="#000" opacity="1">40,000</text><text text-anchor="end" transform="translate(-7,228)" font-family="sans-serif" font-size="10px" fill="#000" opacity="1">60,000</text><text text-anchor="end" transform="translate(-7,203.00000000000003)" font-family="sans-serif" font-size="10px" fill="#000" opacity="1">80,000</text><text text-anchor="end" transform="translate(-7,177.99999999999997)" font-family="sans-serif" font-size="10px" fill="#000" opacity="1">100,000</text><text text-anchor="end" transform="translate(-7,153)" font-family="sans-serif" font-size="10px" fill="#000" opacity="1">120,000</text><text text-anchor="end" transform="translate(-7,127.99999999999999)" font-family="sans-serif" font-size="10px" fill="#000" opacity="1">140,000</text><text text-anchor="end" transform="translate(-7,103.00000000000001)" font-family="sans-serif" font-size="10px" fill="#000" opacity="1">160,000</text><text text-anchor="end" transform="translate(-7,78)" font-family="sans-serif" font-size="10px" fill="#000" opacity="1">180,000</text><text text-anchor="end" transform="translate(-7,52.999999999999986)" font-family="sans-serif" font-size="10px" fill="#000" opacity="1">200,000</text><text text-anchor="end" transform="translate(-7,28.00000000000001)" font-family="sans-serif" font-size="10px" fill="#000" opacity="1">220,000</text><text text-anchor="end" transform="translate(-7,3)" font-family="sans-serif" font-size="10px" fill="#000" opacity="1">240,000</text></g><g class="mark-rule role-axis-domain" pointer-events="none"><line transform="translate(0,300)" x2="0" y2="-300" stroke="#888" stroke-width="1" opacity="1"/></g><g class="mark-text role-axis-title" pointer-events="none"><text text-anchor="middle" transform="translate(-47.1474609375,150) rotate(-90) translate(0,-2)" font-family="sans-serif" font-size="11px" font-weight="bold" fill="#000" opacity="1">Maximum Degree</text></g></g><path class="foreground" aria-hidden="true" d="" pointer-events="none" display="none"/></g></g><g class="mark-rect role-mark concat_1_concat_1_marks" role="graphics-object" aria-roledescription="rect mark container"><path aria-label="File: pro12_mentions; Maximum Degree: 921" role="graphics-symbol" aria-roledescription="bar" d="M173.57142857142856,298.84875h38.57142857142857v1.1512500000000045h-38.57142857142857Z" fill="#6940A5"/><path aria-label="File: wikinews; Maximum Degree: 1035" role="graphics-symbol" aria-roledescription="bar" d="M259.2857142857142,298.70625h38.57142857142857v1.2937499999999886h-38.57142857142857Z" fill="#6940A5"/><path aria-label="File: mooc; Maximum Degree: 19474" role="graphics-symbol" aria-roledescription="bar" d="M87.85714285714285,275.6575h38.57142857142857v24.342499999999973h-38.57142857142857Z" fill="#6940A5"/><path aria-label="File: corpus_ner_geo; Maximum Degree: 17188" role="graphics-symbol" aria-roledescription="bar" d="M2.142857142857139,278.515h38.57142857142857v21.485000000000014h-38.57142857142857Z" fill="#6940A5"/><path aria-label="File: osama; Maximum Degree: 12562" role="graphics-symbol" aria-roledescription="bar" d="M130.7142857142857,284.2975h38.57142857142857v15.702499999999986h-38.57142857142857Z" fill="#6940A5"/><path aria-label="File: huffington; Maximum Degree: 14312" role="graphics-symbol" aria-roledescription="bar" d="M44.99999999999999,282.11h38.57142857142857v17.889999999999986h-38.57142857142857Z" fill="#6940A5"/><path aria-label="File: superbowl; Maximum Degree: 228512" role="graphics-symbol" aria-roledescription="bar" d="M216.42857142857142,14.359999999999983h38.57142857142857v285.64000000000004h-38.57142857142857Z" fill="#6940A5"/></g></g><path class="foreground" aria-hidden="true" d="" display="none"/></g></g></g><path class="foreground" aria-hidden="true" d="" display="none"/></g></g></g><path class="foreground" aria-hidden="true" d="" display="none"/></g></g></g></svg>