<svg xmlns="http://www.w3.org/2000/svg" xmlns:xlink="http://www.w3.org/1999/xlink" version="1.1" class="marks" width="358" height="347" viewBox="0 0 358 347"><rect width="358" height="347" fill="white"/><g fill="none" stroke-miterlimit="10" transform="translate(53,10)"><g class="mark-group role-frame root" role="graphics-object" aria-roledescription="group mark container"><g transform="translate(0,0)"><path class="background" aria-hidden="true" d="M0.5,0.5h300v300h-300Z" stroke="#ddd"/><g><g class="mark-group role-axis" aria-hidden="true"><g transform="translate(0.5,300.5)"><path class="background" aria-hidden="true" d="M0,0h0v0h0Z" pointer-events="none"/><g><g class="mark-rule role-axis-grid" pointer-events="none"><line transform="translate(23,-300)" x2="0" y2="300" stroke="#ddd" stroke-width="1" opacity="1"/><line transform="translate(81,-300)" x2="0" y2="300" stroke="#ddd" stroke-width="1" opacity="1"/><line transform="translate(138,-300)" x2="0" y2="300" stroke="#ddd" stroke-width="1" opacity="1"/><line transform="translate(196,-300)" x2="0" y2="300" stroke="#ddd" stroke-width="1" opacity="1"/><line transform="translate(254,-300)" x2="0" y2="300" stroke="#ddd" stroke-width="1" opacity="1"/></g></g><path class="foreground" aria-hidden="true" d="" pointer-events="none" display="none"/></g></g><g class="mark-group role-axis" aria-hidden="true"><g transform="translate(0.5,0.5)"><path class="background" aria-hidden="true" d="M0,0h0v0h0Z" pointer-events="none"/><g><g class="mark-rule role-axis-grid" pointer-events="none"><line transform="translate(0,300)" x2="300" y2="0" stroke="#ddd" stroke-width="1" opacity="1"/><line transform="translate(0,267)" x2="300" y2="0" stroke="#ddd" stroke-width="1" opacity="1"/><line transform="translate(0,233)" x2="300" y2="0" stroke="#ddd" stroke-width="1" opacity="1"/><line transform="translate(0,200)" x2="300" y2="0" stroke="#ddd" stroke-width="1" opacity="1"/><line transform="translate(0,167)" x2="300" y2="0" stroke="#ddd" stroke-width="1" opacity="1"/><line transform="translate(0,133)" x2="300" y2="0" stroke="#ddd" stroke-width="1" opacity="1"/><line transform="translate(0,100)" x2="300" y2="0" stroke="#ddd" stroke-width="1" opacity="1"/><line transform="translate(0,67)" x2="300" y2="0" stroke="#ddd" stroke-width="1" opacity="1"/><line transform="translate(0,33)" x2="300" y2="0" stroke="#ddd" stroke-width="1" opacity="1"/><line transform="translate(0,0)" x2="300" y2="0" stroke="#ddd" stroke-width="1" opacity="1"/></g></g><path class="foreground" aria-hidden="true" d="" pointer-events="none" display="none"/></g></g><g class="mark-group role-axis" role="graphics-symbol" aria-roledescription="axis" aria-label="X-axis titled 'Node Degree' for a linear scale with values from −20 to 240"><g transform="translate(0.5,300.5)"><path class="background" aria-hidden="true" d="M0,0h0v0h0Z" pointer-events="none"/><g><g class="mark-rule role-axis-tick" pointer-events="none"><line transform="translate(23,0)" x2="0" y2="5" stroke="#888" stroke-width="1" opacity="1"/><line transform="translate(81,0)" x2="0" y2="5" stroke="#888" stroke-width="1" opacity="1"/><line transform="translate(138,0)" x2="0" y2="5" stroke="#888" stroke-width="1" opacity="1"/><line transform="translate(196,0)" x2="0" y2="5" stroke="#888" stroke-width="1" opacity="1"/><line transform="translate(254,0)" x2="0" y2="5" stroke="#888" stroke-width="1" opacity="1"/></g><g class="mark-text role-axis-label" pointer-events="none"><text text-anchor="middle" transform="translate(23.076923076923077,15)" font-family="sans-serif" font-size="10px" fill="#000" opacity="1">0</text><text text-anchor="middle" transform="translate(80.76923076923076,15)" font-family="sans-serif" font-size="10px" fill="#000" opacity="1">50</text><text text-anchor="middle" transform="translate(138.46153846153848,15)" font-family="sans-serif" font-size="10px" fill="#000" opacity="1">100</text><text text-anchor="middle" transform="translate(196.15384615384616,15)" font-family="sans-serif" font-size="10px" fill="#000" opacity="1">150</text><text text-anchor="middle" transform="translate(253.84615384615384,15)" font-family="sans-serif" font-size="10px" fill="#000" opacity="1">200</text></g><g class="mark-rule role-axis-domain" pointer-events="none"><line transform="translate(0,0)" x2="300" y2="0" stroke="#888" stroke-width="1" opacity="1"/></g><g class="mark-text role-axis-title" pointer-events="none"><text text-anchor="middle" transform="translate(150,30)" font-family="sans-serif" font-size="11px" font-weight="bold" fill="#000" opacity="1">Node Degree</text></g></g><path class="foreground" aria-hidden="true" d="" pointer-events="none" display="none"/></g></g><g class="mark-group role-axis" role="graphics-symbol" aria-roledescription="axis" aria-label="Y-axis titled 'Count of Records' for a linear scale with values from 0 to 1,800"><g transform="translate(0.5,0.5)"><path class="background" aria-hidden="true" d="M0,0h0v0h0Z" pointer-events="none"/><g><g class="mark-rule role-axis-tick" pointer-events="none"><line transform="translate(0,300)" x2="-5" y2="0" stroke="#888" stroke-width="1" opacity="1"/><line transform="translate(0,267)" x2="-5" y2="0" stroke="#888" stroke-width="1" opacity="1"/><line transform="translate(0,233)" x2="-5" y2="0" stroke="#888" stroke-width="1" opacity="1"/><line transform="translate(0,200)" x2="-5" y2="0" stroke="#888" stroke-width="1" opacity="1"/><line transform="translate(0,167)" x2="-5" y2="0" stroke="#888" stroke-width="1" opacity="1"/><line transform="translate(0,133)" x2="-5" y2="0" stroke="#888" stroke-width="1" opacity="1"/><line transform="translate(0,100)" x2="-5" y2="0" stroke="#888" stroke-width="1" opacity="1"/><line transform="translate(0,67)" x2="-5" y2="0" stroke="#888" stroke-width="1" opacity="1"/><line transform="translate(0,33)" x2="-5" y2="0" stroke="#888" stroke-width="1" opacity="1"/><line transform="translate(0,0)" x2="-5" y2="0" stroke="#888" stroke-width="1" opacity="1"/></g><g class="mark-text role-axis-label" pointer-events="none"><text text-anchor="end" transform="translate(-7,303)" font-family="sans-serif" font-size="10px" fill="#000" opacity="1">0</text><text text-anchor="end" transform="translate(-7,269.66666666666663)" font-family="sans-serif" font-size="10px" fill="#000" opacity="1">200</text><text text-anchor="end" transform="translate(-7,236.33333333333334)" font-family="sans-serif" font-size="10px" fill="#000" opacity="1">400</text><text text-anchor="end" transform="translate(-7,203.00000000000003)" font-family="sans-serif" font-size="10px" fill="#000" opacity="1">600</text><text text-anchor="end" transform="translate(-7,169.66666666666669)" font-family="sans-serif" font-size="10px" fill="#000" opacity="1">800</text><text text-anchor="end" transform="translate(-7,136.33333333333331)" font-family="sans-serif" font-size="10px" fill="#000" opacity="1">1,000</text><text text-anchor="end" transform="translate(-7,103.00000000000001)" font-family="sans-serif" font-size="10px" fill="#000" opacity="1">1,200</text><text text-anchor="end" transform="translate(-7,69.66666666666666)" font-family="sans-serif" font-size="10px" fill="#000" opacity="1">1,400</text><text text-anchor="end" transform="translate(-7,36.33333333333335)" font-family="sans-serif" font-size="10px" fill="#000" opacity="1">1,600</text><text text-anchor="end" transform="translate(-7,3)" font-family="sans-serif" font-size="10px" fill="#000" opacity="1">1,800</text></g><g class="mark-rule role-axis-domain" pointer-events="none"><line transform="translate(0,300)" x2="0" y2="-300" stroke="#888" stroke-width="1" opacity="1"/></g><g class="mark-text role-axis-title" pointer-events="none"><text text-anchor="middle" transform="translate(-36.0244140625,150) rotate(-90) translate(0,-2)" font-family="sans-serif" font-size="11px" font-weight="bold" fill="#000" opacity="1">Count of Records</text></g></g><path class="foreground" aria-hidden="true" d="" pointer-events="none" display="none"/></g></g><g class="mark-rect role-mark marks" role="graphics-object" aria-roledescription="rect mark container"><path aria-label="Node Degree: 50; Count of Records: 2" role="graphics-symbol" aria-roledescription="bar" d="M78.26923076923076,299.6666666666667h5v0.3333333333333144h-5Z" fill="#0B6E99"/><path aria-label="Node Degree: 25; Count of Records: 4" role="graphics-symbol" aria-roledescription="bar" d="M49.42307692307692,299.3333333333333h5v0.6666666666666856h-5Z" fill="#0B6E99"/><path aria-label="Node Degree: 2; Count of Records: 520" role="graphics-symbol" aria-roledescription="bar" d="M22.884615384615387,213.33333333333334h5v86.66666666666666h-5Z" fill="#0B6E99"/><path aria-label="Node Degree: 7; Count of Records: 45" role="graphics-symbol" aria-roledescription="bar" d="M28.653846153846157,292.5h5v7.5h-5Z" fill="#0B6E99"/><path aria-label="Node Degree: 23; Count of Records: 7" role="graphics-symbol" aria-roledescription="bar" d="M47.11538461538461,298.8333333333333h5v1.1666666666666856h-5Z" fill="#0B6E99"/><path aria-label="Node Degree: 27; Count of Records: 5" role="graphics-symbol" aria-roledescription="bar" d="M51.730769230769226,299.1666666666667h5v0.8333333333333144h-5Z" fill="#0B6E99"/><path aria-label="Node Degree: 40; Count of Records: 1" role="graphics-symbol" aria-roledescription="bar" d="M66.73076923076924,299.8333333333333h5v0.16666666666668561h-5Z" fill="#0B6E99"/><path aria-label="Node Degree: 8; Count of Records: 39" role="graphics-symbol" aria-roledescription="bar" d="M29.807692307692307,293.5h5v6.5h-5Z" fill="#0B6E99"/><path aria-label="Node Degree: 227; Count of Records: 1" role="graphics-symbol" aria-roledescription="bar" d="M282.5,299.8333333333333h5v0.16666666666668561h-5Z" fill="#0B6E99"/><path aria-label="Node Degree: 5; Count of Records: 83" role="graphics-symbol" aria-roledescription="bar" d="M26.346153846153847,286.1666666666667h5v13.833333333333314h-5Z" fill="#0B6E99"/><path aria-label="Node Degree: 10; Count of Records: 16" role="graphics-symbol" aria-roledescription="bar" d="M32.11538461538462,297.33333333333337h5v2.6666666666666288h-5Z" fill="#0B6E99"/><path aria-label="Node Degree: 31; Count of Records: 3" role="graphics-symbol" aria-roledescription="bar" d="M56.34615384615385,299.5h5v0.5h-5Z" fill="#0B6E99"/><path aria-label="Node Degree: 1; Count of Records: 1647" role="graphics-symbol" aria-roledescription="bar" d="M21.730769230769234,25.49999999999999h5v274.5h-5Z" fill="#0B6E99"/><path aria-label="Node Degree: 19; Count of Records: 6" role="graphics-symbol" aria-roledescription="bar" d="M42.5,299h5v1h-5Z" fill="#0B6E99"/><path aria-label="Node Degree: 18; Count of Records: 9" role="graphics-symbol" aria-roledescription="bar" d="M41.34615384615385,298.5h5v1.5h-5Z" fill="#0B6E99"/><path aria-label="Node Degree: 4; Count of Records: 128" role="graphics-symbol" aria-roledescription="bar" d="M25.192307692307693,278.6666666666667h5v21.333333333333314h-5Z" fill="#0B6E99"/><path aria-label="Node Degree: 122; Count of Records: 1" role="graphics-symbol" aria-roledescription="bar" d="M161.34615384615384,299.8333333333333h5v0.16666666666668561h-5Z" fill="#0B6E99"/><path aria-label="Node Degree: 61; Count of Records: 1" role="graphics-symbol" aria-roledescription="bar" d="M90.96153846153847,299.8333333333333h5v0.16666666666668561h-5Z" fill="#0B6E99"/><path aria-label="Node Degree: 54; Count of Records: 1" role="graphics-symbol" aria-roledescription="bar" d="M82.88461538461539,299.8333333333333h5v0.16666666666668561h-5Z" fill="#0B6E99"/><path aria-label="Node Degree: 3; Count of Records: 228" role="graphics-symbol" aria-roledescription="bar" d="M24.03846153846154,262h5v38h-5Z" fill="#0B6E99"/><path aria-label="Node Degree: 6; Count of Records: 61" role="graphics-symbol" aria-roledescription="bar" d="M27.5,289.83333333333337h5v10.166666666666629h-5Z" fill="#0B6E99"/><path aria-label="Node Degree: 12; Count of Records: 19" role="graphics-symbol" aria-roledescription="bar" d="M34.42307692307693,296.8333333333333h5v3.1666666666666856h-5Z" fill="#0B6E99"/><path aria-label="Node Degree: 41; Count of Records: 2" role="graphics-symbol" aria-roledescription="bar" d="M67.88461538461539,299.6666666666667h5v0.3333333333333144h-5Z" fill="#0B6E99"/><path aria-label="Node Degree: 26; Count of Records: 3" role="graphics-symbol" aria-roledescription="bar" d="M50.57692307692308,299.5h5v0.5h-5Z" fill="#0B6E99"/><path aria-label="Node Degree: 97; Count of Records: 1" role="graphics-symbol" aria-roledescription="bar" d="M132.5,299.8333333333333h5v0.16666666666668561h-5Z" fill="#0B6E99"/><path aria-label="Node Degree: 20; Count of Records: 5" role="graphics-symbol" aria-roledescription="bar" d="M43.65384615384615,299.1666666666667h5v0.8333333333333144h-5Z" fill="#0B6E99"/><path aria-label="Node Degree: 87; Count of Records: 1" role="graphics-symbol" aria-roledescription="bar" d="M120.96153846153845,299.8333333333333h5v0.16666666666668561h-5Z" fill="#0B6E99"/><path aria-label="Node Degree: 46; Count of Records: 2" role="graphics-symbol" aria-roledescription="bar" d="M73.65384615384615,299.6666666666667h5v0.3333333333333144h-5Z" fill="#0B6E99"/><path aria-label="Node Degree: 42; Count of Records: 2" role="graphics-symbol" aria-roledescription="bar" d="M69.03846153846155,299.6666666666667h5v0.3333333333333144h-5Z" fill="#0B6E99"/><path aria-label="Node Degree: 15; Count of Records: 7" role="graphics-symbol" aria-roledescription="bar" d="M37.88461538461538,298.8333333333333h5v1.1666666666666856h-5Z" fill="#0B6E99"/><path aria-label="Node Degree: 16; Count of Records: 9" role="graphics-symbol" aria-roledescription="bar" d="M39.03846153846154,298.5h5v1.5h-5Z" fill="#0B6E99"/><path aria-label="Node Degree: 45; Count of Records: 2" role="graphics-symbol" aria-roledescription="bar" d="M72.5,299.6666666666667h5v0.3333333333333144h-5Z" fill="#0B6E99"/><path aria-label="Node Degree: 21; Count of Records: 3" role="graphics-symbol" aria-roledescription="bar" d="M44.80769230769231,299.5h5v0.5h-5Z" fill="#0B6E99"/><path aria-label="Node Degree: 32; Count of Records: 2" role="graphics-symbol" aria-roledescription="bar" d="M57.5,299.6666666666667h5v0.3333333333333144h-5Z" fill="#0B6E99"/><path aria-label="Node Degree: 13; Count of Records: 11" role="graphics-symbol" aria-roledescription="bar" d="M35.57692307692307,298.1666666666667h5v1.8333333333333144h-5Z" fill="#0B6E99"/><path aria-label="Node Degree: 47; Count of Records: 1" role="graphics-symbol" aria-roledescription="bar" d="M74.80769230769229,299.8333333333333h5v0.16666666666668561h-5Z" fill="#0B6E99"/><path aria-label="Node Degree: 22; Count of Records: 3" role="graphics-symbol" aria-roledescription="bar" d="M45.96153846153847,299.5h5v0.5h-5Z" fill="#0B6E99"/><path aria-label="Node Degree: 38; Count of Records: 1" role="graphics-symbol" aria-roledescription="bar" d="M64.42307692307692,299.8333333333333h5v0.16666666666668561h-5Z" fill="#0B6E99"/><path aria-label="Node Degree: 11; Count of Records: 20" role="graphics-symbol" aria-roledescription="bar" d="M33.269230769230774,296.6666666666667h5v3.3333333333333144h-5Z" fill="#0B6E99"/><path aria-label="Node Degree: 30; Count of Records: 4" role="graphics-symbol" aria-roledescription="bar" d="M55.19230769230769,299.3333333333333h5v0.6666666666666856h-5Z" fill="#0B6E99"/><path aria-label="Node Degree: 14; Count of Records: 3" role="graphics-symbol" aria-roledescription="bar" d="M36.73076923076923,299.5h5v0.5h-5Z" fill="#0B6E99"/><path aria-label="Node Degree: 83; Count of Records: 1" role="graphics-symbol" aria-roledescription="bar" d="M116.34615384615384,299.8333333333333h5v0.16666666666668561h-5Z" fill="#0B6E99"/><path aria-label="Node Degree: 29; Count of Records: 6" role="graphics-symbol" aria-roledescription="bar" d="M54.03846153846154,299h5v1h-5Z" fill="#0B6E99"/><path aria-label="Node Degree: 36; Count of Records: 2" role="graphics-symbol" aria-roledescription="bar" d="M62.11538461538461,299.6666666666667h5v0.3333333333333144h-5Z" fill="#0B6E99"/><path aria-label="Node Degree: 9; Count of Records: 17" role="graphics-symbol" aria-roledescription="bar" d="M30.96153846153846,297.16666666666663h5v2.8333333333333712h-5Z" fill="#0B6E99"/><path aria-label="Node Degree: 35; Count of Records: 2" role="graphics-symbol" aria-roledescription="bar" d="M60.96153846153846,299.6666666666667h5v0.3333333333333144h-5Z" fill="#0B6E99"/><path aria-label="Node Degree: 17; Count of Records: 6" role="graphics-symbol" aria-roledescription="bar" d="M40.19230769230769,299h5v1h-5Z" fill="#0B6E99"/><path aria-label="Node Degree: 28; Count of Records: 1" role="graphics-symbol" aria-roledescription="bar" d="M52.88461538461539,299.8333333333333h5v0.16666666666668561h-5Z" fill="#0B6E99"/><path aria-label="Node Degree: 24; Count of Records: 1" role="graphics-symbol" aria-roledescription="bar" d="M48.269230769230774,299.8333333333333h5v0.16666666666668561h-5Z" fill="#0B6E99"/><path aria-label="Node Degree: 108; Count of Records: 1" role="graphics-symbol" aria-roledescription="bar" d="M145.1923076923077,299.8333333333333h5v0.16666666666668561h-5Z" fill="#0B6E99"/><path aria-label="Node Degree: 84; Count of Records: 1" role="graphics-symbol" aria-roledescription="bar" d="M117.5,299.8333333333333h5v0.16666666666668561h-5Z" fill="#0B6E99"/><path aria-label="Node Degree: 58; Count of Records: 1" role="graphics-symbol" aria-roledescription="bar" d="M87.5,299.8333333333333h5v0.16666666666668561h-5Z" fill="#0B6E99"/><path aria-label="Node Degree: 62; Count of Records: 1" role="graphics-symbol" aria-roledescription="bar" d="M92.11538461538461,299.8333333333333h5v0.16666666666668561h-5Z" fill="#0B6E99"/><path aria-label="Node Degree: 74; Count of Records: 1" role="graphics-symbol" aria-roledescription="bar" d="M105.96153846153845,299.8333333333333h5v0.16666666666668561h-5Z" fill="#0B6E99"/><path aria-label="Node Degree: 44; Count of Records: 1" role="graphics-symbol" aria-roledescription="bar" d="M71.34615384615385,299.8333333333333h5v0.16666666666668561h-5Z" fill="#0B6E99"/><path aria-label="Node Degree: 34; Count of Records: 1" role="graphics-symbol" aria-roledescription="bar" d="M59.807692307692314,299.8333333333333h5v0.16666666666668561h-5Z" fill="#0B6E99"/><path aria-label="Node Degree: 51; Count of Records: 1" role="graphics-symbol" aria-roledescription="bar" d="M79.42307692307692,299.8333333333333h5v0.16666666666668561h-5Z" fill="#0B6E99"/><path aria-label="Node Degree: 135; Count of Records: 1" role="graphics-symbol" aria-roledescription="bar" d="M176.34615384615384,299.8333333333333h5v0.16666666666668561h-5Z" fill="#0B6E99"/><path aria-label="Node Degree: 76; Count of Records: 1" role="graphics-symbol" aria-roledescription="bar" d="M108.26923076923077,299.8333333333333h5v0.16666666666668561h-5Z" fill="#0B6E99"/><path aria-label="Node Degree: 55; Count of Records: 1" role="graphics-symbol" aria-roledescription="bar" d="M84.03846153846153,299.8333333333333h5v0.16666666666668561h-5Z" fill="#0B6E99"/><path aria-label="Node Degree: 48; Count of Records: 1" role="graphics-symbol" aria-roledescription="bar" d="M75.96153846153847,299.8333333333333h5v0.16666666666668561h-5Z" fill="#0B6E99"/><path aria-label="Node Degree: 56; Count of Records: 1" role="graphics-symbol" aria-roledescription="bar" d="M85.1923076923077,299.8333333333333h5v0.16666666666668561h-5Z" fill="#0B6E99"/><path aria-label="Node Degree: 67; Count of Records: 1" role="graphics-symbol" aria-roledescription="bar" d="M97.88461538461537,299.8333333333333h5v0.16666666666668561h-5Z" fill="#0B6E99"/><path aria-label="Node Degree: 33; Count of Records: 2" role="graphics-symbol" aria-roledescription="bar" d="M58.65384615384615,299.6666666666667h5v0.3333333333333144h-5Z" fill="#0B6E99"/></g></g><path class="foreground" aria-hidden="true" d="" display="none"/></g></g></g></svg>